<svg width="970.0" height="450" xmlns="http://www.w3.org/2000/svg">
<path stroke-width="6.538461538461539" stroke="lightgrey" d="M 62 206 127 71"/>
<path stroke-width="7.70673076923077" stroke="lightgrey" d="M 249 123 25 162"/>
<path stroke-width="7.98798076923077" stroke="lightgrey" d="M 249 123 406 183"/>
<path stroke-width="8.50721153846154" stroke="lightgrey" d="M 249 123 220 158"/>
<path stroke-width="8.182692307692307" stroke="lightgrey" d="M 249 123 358 194"/>
<path stroke-width="8.50721153846154" stroke="lightgrey" d="M 249 123 250 205"/>
<path stroke-width="8.78846153846154" stroke="lightgrey" d="M 249 123 371 153"/>
<path stroke-width="9.221153846153847" stroke="lightgrey" d="M 249 123 353 136"/>
<path stroke-width="7.0360576923076925" stroke="lightgrey" d="M 220 158 62 206"/>
<path stroke-width="7.512019230769231" stroke="lightgrey" d="M 220 158 127 71"/>
<path stroke-width="3.661057692307693" stroke="lightgrey" d="M 220 158 802 25"/>
<path stroke-width="9.632211538461538" stroke="lightgrey" d="M 249 123 275 100"/>
<path stroke-width="2.96875" stroke="lightgrey" d="M 220 158 337 425"/>
<path stroke-width="7.144230769230769" stroke="lightgrey" d="M 220 158 494 141"/>
<path stroke-width="8.009615384615383" stroke="lightgrey" d="M 220 158 275 100"/>
<path stroke-width="7.382211538461539" stroke="lightgrey" d="M 220 158 25 162"/>
<path stroke-width="8.572115384615385" stroke="lightgrey" d="M 220 158 406 183"/>
<path stroke-width="8.50721153846154" stroke="lightgrey" d="M 220 158 249 123"/>
<path stroke-width="8.334134615384617" stroke="lightgrey" d="M 220 158 358 194"/>
<path stroke-width="8.009615384615383" stroke="lightgrey" d="M 220 158 250 205"/>
<path stroke-width="8.50721153846154" stroke="lightgrey" d="M 220 158 371 153"/>
<path stroke-width="8.420673076923077" stroke="lightgrey" d="M 220 158 353 136"/>
<path stroke-width="7.0576923076923075" stroke="lightgrey" d="M 358 194 62 206"/>
<path stroke-width="1.8817960111656258" stroke="lightgrey" d="M 220 158 825 386"/>
<path stroke-width="6.668269230769231" stroke="lightgrey" d="M 358 194 127 71"/>
<path stroke-width="7.901442307692307" stroke="lightgrey" d="M 249 123 494 141"/>
<path stroke-width="2.3413461538461537" stroke="lightgrey" d="M 249 123 337 425"/>
<path stroke-width="7.382211538461539" stroke="lightgrey" d="M 25 162 220 158"/>
<path stroke-width="6.841346153846154" stroke="lightgrey" d="M 25 162 358 194"/>
<path stroke-width="7.122596153846153" stroke="lightgrey" d="M 25 162 250 205"/>
<path stroke-width="6.971153846153847" stroke="lightgrey" d="M 25 162 371 153"/>
<path stroke-width="7.274038461538463" stroke="lightgrey" d="M 25 162 353 136"/>
<path stroke-width="6.819711538461539" stroke="lightgrey" d="M 406 183 62 206"/>
<path stroke-width="6.603365384615384" stroke="lightgrey" d="M 406 183 127 71"/>
<path stroke-width="4.09375" stroke="lightgrey" d="M 406 183 802 25"/>
<path stroke-width="3.0552884615384617" stroke="lightgrey" d="M 406 183 337 425"/>
<path stroke-width="2.1858074932155915" stroke="lightgrey" d="M 406 183 825 386"/>
<path stroke-width="1.5560694232549483" stroke="lightgrey" d="M 249 123 825 386"/>
<path stroke-width="8.009615384615383" stroke="lightgrey" d="M 406 183 494 141"/>
<path stroke-width="6.646634615384616" stroke="lightgrey" d="M 406 183 25 162"/>
<path stroke-width="7.98798076923077" stroke="lightgrey" d="M 406 183 249 123"/>
<path stroke-width="8.572115384615385" stroke="lightgrey" d="M 406 183 220 158"/>
<path stroke-width="9.502403846153847" stroke="lightgrey" d="M 406 183 358 194"/>
<path stroke-width="8.22596153846154" stroke="lightgrey" d="M 406 183 250 205"/>
<path stroke-width="9.329326923076923" stroke="lightgrey" d="M 406 183 371 153"/>
<path stroke-width="8.896634615384617" stroke="lightgrey" d="M 406 183 353 136"/>
<path stroke-width="7.663461538461539" stroke="lightgrey" d="M 249 123 62 206"/>
<path stroke-width="7.663461538461539" stroke="lightgrey" d="M 249 123 127 71"/>
<path stroke-width="3.6826923076923084" stroke="lightgrey" d="M 249 123 802 25"/>
<path stroke-width="7.533653846153846" stroke="lightgrey" d="M 406 183 275 100"/>
<path stroke-width="3.9855769230769242" stroke="lightgrey" d="M 358 194 802 25"/>
<path stroke-width="3.206730769230769" stroke="lightgrey" d="M 358 194 337 425"/>
<path stroke-width="2.098947069772744" stroke="lightgrey" d="M 358 194 825 386"/>
<path stroke-width="2.250952810797727" stroke="lightgrey" d="M 371 153 825 386"/>
<path stroke-width="8.939903846153847" stroke="lightgrey" d="M 371 153 494 141"/>
<path stroke-width="8.50721153846154" stroke="lightgrey" d="M 371 153 275 100"/>
<path stroke-width="6.971153846153847" stroke="lightgrey" d="M 371 153 25 162"/>
<path stroke-width="9.329326923076923" stroke="lightgrey" d="M 371 153 406 183"/>
<path stroke-width="8.78846153846154" stroke="lightgrey" d="M 371 153 249 123"/>
<path stroke-width="8.50721153846154" stroke="lightgrey" d="M 371 153 220 158"/>
<path stroke-width="9.091346153846153" stroke="lightgrey" d="M 371 153 358 194"/>
<path stroke-width="8.463942307692307" stroke="lightgrey" d="M 371 153 250 205"/>
<path stroke-width="10.0" stroke="lightgrey" d="M 371 153 353 136"/>
<path stroke-width="3.076923076923077" stroke="lightgrey" d="M 371 153 337 425"/>
<path stroke-width="7.274038461538463" stroke="lightgrey" d="M 353 136 62 206"/>
<path stroke-width="3.8125000000000004" stroke="lightgrey" d="M 353 136 802 25"/>
<path stroke-width="2.6875" stroke="lightgrey" d="M 353 136 337 425"/>
<path stroke-width="1.9469413287477613" stroke="lightgrey" d="M 353 136 825 386"/>
<path stroke-width="8.939903846153847" stroke="lightgrey" d="M 353 136 494 141"/>
<path stroke-width="9.026442307692308" stroke="lightgrey" d="M 353 136 275 100"/>
<path stroke-width="7.274038461538463" stroke="lightgrey" d="M 353 136 25 162"/>
<path stroke-width="8.896634615384617" stroke="lightgrey" d="M 353 136 406 183"/>
<path stroke-width="9.221153846153847" stroke="lightgrey" d="M 353 136 249 123"/>
<path stroke-width="8.420673076923077" stroke="lightgrey" d="M 353 136 220 158"/>
<path stroke-width="8.701923076923077" stroke="lightgrey" d="M 353 136 358 194"/>
<path stroke-width="7.100961538461539" stroke="lightgrey" d="M 353 136 127 71"/>
<path stroke-width="3.942307692307693" stroke="lightgrey" d="M 371 153 802 25"/>
<path stroke-width="7.0576923076923075" stroke="lightgrey" d="M 371 153 127 71"/>
<path stroke-width="7.144230769230769" stroke="lightgrey" d="M 371 153 62 206"/>
<path stroke-width="7.555288461538462" stroke="lightgrey" d="M 358 194 494 141"/>
<path stroke-width="7.685096153846153" stroke="lightgrey" d="M 358 194 275 100"/>
<path stroke-width="6.841346153846154" stroke="lightgrey" d="M 358 194 25 162"/>
<path stroke-width="9.502403846153847" stroke="lightgrey" d="M 358 194 406 183"/>
<path stroke-width="8.182692307692307" stroke="lightgrey" d="M 358 194 249 123"/>
<path stroke-width="8.334134615384617" stroke="lightgrey" d="M 358 194 220 158"/>
<path stroke-width="8.463942307692307" stroke="lightgrey" d="M 358 194 250 205"/>
<path stroke-width="9.091346153846153" stroke="lightgrey" d="M 358 194 371 153"/>
<path stroke-width="8.701923076923077" stroke="lightgrey" d="M 358 194 353 136"/>
<path stroke-width="7.382211538461539" stroke="lightgrey" d="M 250 205 62 206"/>
<path stroke-width="6.992788461538462" stroke="lightgrey" d="M 250 205 127 71"/>
<path stroke-width="4.180288461538463" stroke="lightgrey" d="M 250 205 802 25"/>
<path stroke-width="3.487980769230769" stroke="lightgrey" d="M 250 205 337 425"/>
<path stroke-width="2.272667916658439" stroke="lightgrey" d="M 250 205 825 386"/>
<path stroke-width="7.014423076923077" stroke="lightgrey" d="M 250 205 494 141"/>
<path stroke-width="7.836538461538463" stroke="lightgrey" d="M 250 205 275 100"/>
<path stroke-width="7.122596153846153" stroke="lightgrey" d="M 250 205 25 162"/>
<path stroke-width="8.22596153846154" stroke="lightgrey" d="M 250 205 406 183"/>
<path stroke-width="8.50721153846154" stroke="lightgrey" d="M 250 205 249 123"/>
<path stroke-width="8.009615384615383" stroke="lightgrey" d="M 250 205 220 158"/>
<path stroke-width="8.463942307692307" stroke="lightgrey" d="M 250 205 358 194"/>
<path stroke-width="8.463942307692307" stroke="lightgrey" d="M 250 205 371 153"/>
<path stroke-width="8.03125" stroke="lightgrey" d="M 250 205 353 136"/>
<path stroke-width="7.70673076923077" stroke="lightgrey" d="M 25 162 249 123"/>
<path stroke-width="6.646634615384616" stroke="lightgrey" d="M 25 162 406 183"/>
<path stroke-width="7.46875" stroke="lightgrey" d="M 25 162 275 100"/>
<path stroke-width="6.257211538461539" stroke="lightgrey" d="M 25 162 494 141"/>
<path stroke-width="3.379807692307692" stroke="lightgrey" d="M 802 25 62 206"/>
<path stroke-width="3.379807692307692" stroke="lightgrey" d="M 802 25 127 71"/>
<path stroke-width="1.0" stroke="lightgrey" d="M 802 25 337 425"/>
<path stroke-width="1.1217673060407118" stroke="lightgrey" d="M 802 25 825 386"/>
<path stroke-width="3.3149038461538463" stroke="lightgrey" d="M 802 25 494 141"/>
<path stroke-width="3.574519230769231" stroke="lightgrey" d="M 802 25 275 100"/>
<path stroke-width="3.6826923076923084" stroke="lightgrey" d="M 802 25 25 162"/>
<path stroke-width="4.09375" stroke="lightgrey" d="M 802 25 406 183"/>
<path stroke-width="3.6826923076923084" stroke="lightgrey" d="M 802 25 249 123"/>
<path stroke-width="3.661057692307693" stroke="lightgrey" d="M 802 25 220 158"/>
<path stroke-width="7.100961538461539" stroke="lightgrey" d="M 127 71 353 136"/>
<path stroke-width="3.9855769230769242" stroke="lightgrey" d="M 802 25 358 194"/>
<path stroke-width="3.942307692307693" stroke="lightgrey" d="M 802 25 371 153"/>
<path stroke-width="3.8125000000000004" stroke="lightgrey" d="M 802 25 353 136"/>
<path stroke-width="3.206730769230769" stroke="lightgrey" d="M 337 425 62 206"/>
<path stroke-width="2.2548076923076925" stroke="lightgrey" d="M 337 425 127 71"/>
<path stroke-width="1.0" stroke="lightgrey" d="M 337 425 802 25"/>
<path stroke-width="4.791620196501011" stroke="lightgrey" d="M 337 425 825 386"/>
<path stroke-width="2.795673076923077" stroke="lightgrey" d="M 337 425 494 141"/>
<path stroke-width="2.0600961538461537" stroke="lightgrey" d="M 337 425 275 100"/>
<path stroke-width="2.6875" stroke="lightgrey" d="M 337 425 25 162"/>
<path stroke-width="3.0552884615384617" stroke="lightgrey" d="M 337 425 406 183"/>
<path stroke-width="4.180288461538463" stroke="lightgrey" d="M 802 25 250 205"/>
<path stroke-width="7.0576923076923075" stroke="lightgrey" d="M 127 71 371 153"/>
<path stroke-width="6.992788461538462" stroke="lightgrey" d="M 127 71 250 205"/>
<path stroke-width="6.668269230769231" stroke="lightgrey" d="M 127 71 358 194"/>
<path stroke-width="3.379807692307692" stroke="lightgrey" d="M 62 206 802 25"/>
<path stroke-width="3.206730769230769" stroke="lightgrey" d="M 62 206 337 425"/>
<path stroke-width="1.7732204818620665" stroke="lightgrey" d="M 62 206 825 386"/>
<path stroke-width="6.38701923076923" stroke="lightgrey" d="M 62 206 494 141"/>
<path stroke-width="7.295673076923077" stroke="lightgrey" d="M 62 206 275 100"/>
<path stroke-width="8.399038461538463" stroke="lightgrey" d="M 62 206 25 162"/>
<path stroke-width="6.819711538461539" stroke="lightgrey" d="M 62 206 406 183"/>
<path stroke-width="7.663461538461539" stroke="lightgrey" d="M 62 206 249 123"/>
<path stroke-width="7.0360576923076925" stroke="lightgrey" d="M 62 206 220 158"/>
<path stroke-width="7.0576923076923075" stroke="lightgrey" d="M 62 206 358 194"/>
<path stroke-width="7.382211538461539" stroke="lightgrey" d="M 62 206 250 205"/>
<path stroke-width="7.144230769230769" stroke="lightgrey" d="M 62 206 371 153"/>
<path stroke-width="7.274038461538463" stroke="lightgrey" d="M 62 206 353 136"/>
<path stroke-width="6.538461538461539" stroke="lightgrey" d="M 127 71 62 206"/>
<path stroke-width="3.379807692307692" stroke="lightgrey" d="M 127 71 802 25"/>
<path stroke-width="2.2548076923076925" stroke="lightgrey" d="M 127 71 337 425"/>
<path stroke-width="1.7515053760013548" stroke="lightgrey" d="M 127 71 825 386"/>
<path stroke-width="6.257211538461539" stroke="lightgrey" d="M 127 71 494 141"/>
<path stroke-width="7.512019230769231" stroke="lightgrey" d="M 127 71 275 100"/>
<path stroke-width="6.278846153846154" stroke="lightgrey" d="M 127 71 25 162"/>
<path stroke-width="6.603365384615384" stroke="lightgrey" d="M 127 71 406 183"/>
<path stroke-width="7.663461538461539" stroke="lightgrey" d="M 127 71 249 123"/>
<path stroke-width="7.512019230769231" stroke="lightgrey" d="M 127 71 220 158"/>
<path stroke-width="2.3413461538461537" stroke="lightgrey" d="M 337 425 249 123"/>
<path stroke-width="8.03125" stroke="lightgrey" d="M 353 136 250 205"/>
<path stroke-width="2.96875" stroke="lightgrey" d="M 337 425 220 158"/>
<path stroke-width="3.487980769230769" stroke="lightgrey" d="M 337 425 250 205"/>
<path stroke-width="7.014423076923077" stroke="lightgrey" d="M 494 141 250 205"/>
<path stroke-width="8.939903846153847" stroke="lightgrey" d="M 494 141 371 153"/>
<path stroke-width="8.939903846153847" stroke="lightgrey" d="M 494 141 353 136"/>
<path stroke-width="7.295673076923077" stroke="lightgrey" d="M 275 100 62 206"/>
<path stroke-width="7.512019230769231" stroke="lightgrey" d="M 275 100 127 71"/>
<path stroke-width="3.574519230769231" stroke="lightgrey" d="M 275 100 802 25"/>
<path stroke-width="2.0600961538461537" stroke="lightgrey" d="M 275 100 337 425"/>
<path stroke-width="1.4040636822299657" stroke="lightgrey" d="M 275 100 825 386"/>
<path stroke-width="8.009615384615383" stroke="lightgrey" d="M 275 100 494 141"/>
<path stroke-width="7.46875" stroke="lightgrey" d="M 275 100 25 162"/>
<path stroke-width="7.555288461538462" stroke="lightgrey" d="M 494 141 358 194"/>
<path stroke-width="7.533653846153846" stroke="lightgrey" d="M 275 100 406 183"/>
<path stroke-width="8.009615384615383" stroke="lightgrey" d="M 275 100 220 158"/>
<path stroke-width="7.685096153846153" stroke="lightgrey" d="M 275 100 358 194"/>
<path stroke-width="7.836538461538463" stroke="lightgrey" d="M 275 100 250 205"/>
<path stroke-width="8.50721153846154" stroke="lightgrey" d="M 275 100 371 153"/>
<path stroke-width="9.026442307692308" stroke="lightgrey" d="M 275 100 353 136"/>
<path stroke-width="8.399038461538463" stroke="lightgrey" d="M 25 162 62 206"/>
<path stroke-width="6.278846153846154" stroke="lightgrey" d="M 25 162 127 71"/>
<path stroke-width="3.6826923076923084" stroke="lightgrey" d="M 25 162 802 25"/>
<path stroke-width="2.6875" stroke="lightgrey" d="M 25 162 337 425"/>
<path stroke-width="1.3823485763692538" stroke="lightgrey" d="M 25 162 825 386"/>
<path stroke-width="9.632211538461538" stroke="lightgrey" d="M 275 100 249 123"/>
<path stroke-width="7.144230769230769" stroke="lightgrey" d="M 494 141 220 158"/>
<path stroke-width="7.901442307692307" stroke="lightgrey" d="M 494 141 249 123"/>
<path stroke-width="8.009615384615383" stroke="lightgrey" d="M 494 141 406 183"/>
<path stroke-width="3.076923076923077" stroke="lightgrey" d="M 337 425 371 153"/>
<path stroke-width="2.6875" stroke="lightgrey" d="M 337 425 353 136"/>
<path stroke-width="1.7732204818620665" stroke="lightgrey" d="M 825 386 62 206"/>
<path stroke-width="1.7515053760013548" stroke="lightgrey" d="M 825 386 127 71"/>
<path stroke-width="1.1217673060407118" stroke="lightgrey" d="M 825 386 802 25"/>
<path stroke-width="4.791620196501011" stroke="lightgrey" d="M 825 386 337 425"/>
<path stroke-width="2.1858074932155915" stroke="lightgrey" d="M 825 386 494 141"/>
<path stroke-width="1.4040636822299657" stroke="lightgrey" d="M 825 386 275 100"/>
<path stroke-width="1.3823485763692538" stroke="lightgrey" d="M 825 386 25 162"/>
<path stroke-width="2.1858074932155915" stroke="lightgrey" d="M 825 386 406 183"/>
<path stroke-width="1.5560694232549483" stroke="lightgrey" d="M 825 386 249 123"/>
<path stroke-width="1.8817960111656258" stroke="lightgrey" d="M 825 386 220 158"/>
<path stroke-width="2.098947069772744" stroke="lightgrey" d="M 825 386 358 194"/>
<path stroke-width="2.2726679166584387" stroke="lightgrey" d="M 825 386 250 205"/>
<path stroke-width="2.2509528107977266" stroke="lightgrey" d="M 825 386 371 153"/>
<path stroke-width="1.9469413287477613" stroke="lightgrey" d="M 825 386 353 136"/>
<path stroke-width="6.38701923076923" stroke="lightgrey" d="M 494 141 62 206"/>
<path stroke-width="6.257211538461539" stroke="lightgrey" d="M 494 141 127 71"/>
<path stroke-width="3.3149038461538463" stroke="lightgrey" d="M 494 141 802 25"/>
<path stroke-width="2.795673076923077" stroke="lightgrey" d="M 494 141 337 425"/>
<path stroke-width="2.1858074932155915" stroke="lightgrey" d="M 494 141 825 386"/>
<path stroke-width="8.009615384615383" stroke="lightgrey" d="M 494 141 275 100"/>
<path stroke-width="6.257211538461539" stroke="lightgrey" d="M 494 141 25 162"/>
<path stroke-width="3.206730769230769" stroke="lightgrey" d="M 337 425 358 194"/>
<path stroke-width="10.0" stroke="lightgrey" d="M 353 136 371 153"/>
<circle cx="62" cy="206" r="25.0" style="fill:blue;stroke:black;stroke-width:4.0"/>
<circle cx="127" cy="71" r="25.0" style="fill:blue;stroke:black;stroke-width:4.0"/>
<circle cx="802" cy="25" r="25.0" style="fill:blue;stroke:black;stroke-width:4.0"/>
<circle cx="337" cy="425" r="25.0" style="fill:red;stroke:black;stroke-width:4.0"/>
<circle cx="825" cy="386" r="25.0" style="fill:red;stroke:black;stroke-width:4.0"/>
<circle cx="494" cy="141" r="25.0" style="fill:blue;stroke:black;stroke-width:4.0"/>
<circle cx="275" cy="100" r="25.0" style="fill:blue;stroke:black;stroke-width:4.0"/>
<circle cx="25" cy="162" r="25.0" style="fill:blue;stroke:black;stroke-width:4.0"/>
<circle cx="406" cy="183" r="25.0" style="fill:blue;stroke:black;stroke-width:4.0"/>
<circle cx="249" cy="123" r="25.0" style="fill:blue;stroke:black;stroke-width:4.0"/>
<circle cx="220" cy="158" r="25.0" style="fill:blue;stroke:black;stroke-width:4.0"/>
<circle cx="358" cy="194" r="25.0" style="fill:blue;stroke:black;stroke-width:4.0"/>
<circle cx="250" cy="205" r="25.0" style="fill:blue;stroke:black;stroke-width:4.0"/>
<circle cx="371" cy="153" r="25.0" style="fill:blue;stroke:black;stroke-width:4.0"/>
<circle cx="353" cy="136" r="25.0" style="fill:blue;stroke:black;stroke-width:4.0"/>
<text text-anchor="start" x="90" y="206" font-size="20">BERTScore</text><text text-anchor="start" x="155" y="71" font-size="20">BLEU</text><text text-anchor="start" x="830" y="25" font-size="20">Chrfpp</text><text text-anchor="start" x="365" y="425" font-size="20">H:pyr</text><text text-anchor="start" x="853" y="386" font-size="20">H:resp</text><text text-anchor="start" x="522" y="141" font-size="20">JS_1</text><text text-anchor="start" x="303" y="100" font-size="20">JS_2</text><text text-anchor="start" x="53" y="162" font-size="20">MoverScore</text><text text-anchor="start" x="434" y="183" font-size="20">ROUGE_1</text><text text-anchor="start" x="277" y="123" font-size="20">ROUGE_2</text><text text-anchor="start" x="248" y="158" font-size="20">ROUGE_L</text><text text-anchor="start" x="386" y="194" font-size="20">ROUGE_WE_1</text><text text-anchor="start" x="278" y="205" font-size="20">ROUGE_WE_2</text><text text-anchor="start" x="399" y="153" font-size="20">S3_pyr</text><text text-anchor="start" x="381" y="136" font-size="20">S3_resp</text></svg>
