<svg width="970.0" height="450" xmlns="http://www.w3.org/2000/svg">
<path stroke-width="6.538461538461539" stroke="lightgrey" d="M 150 307 169 284"/>
<path stroke-width="7.70673076923077" stroke="lightgrey" d="M 29 306 150 281"/>
<path stroke-width="7.98798076923077" stroke="lightgrey" d="M 29 306 68 318"/>
<path stroke-width="8.50721153846154" stroke="lightgrey" d="M 29 306 72 316"/>
<path stroke-width="8.182692307692307" stroke="lightgrey" d="M 29 306 69 321"/>
<path stroke-width="8.50721153846154" stroke="lightgrey" d="M 29 306 88 314"/>
<path stroke-width="8.78846153846154" stroke="lightgrey" d="M 29 306 29 330"/>
<path stroke-width="9.221153846153847" stroke="lightgrey" d="M 29 306 25 322"/>
<path stroke-width="7.0360576923076925" stroke="lightgrey" d="M 72 316 150 307"/>
<path stroke-width="7.512019230769231" stroke="lightgrey" d="M 72 316 169 284"/>
<path stroke-width="3.661057692307693" stroke="lightgrey" d="M 72 316 521 25"/>
<path stroke-width="9.632211538461538" stroke="lightgrey" d="M 29 306 57 297"/>
<path stroke-width="2.96875" stroke="lightgrey" d="M 72 316 718 425"/>
<path stroke-width="7.144230769230769" stroke="lightgrey" d="M 72 316 121 325"/>
<path stroke-width="8.009615384615383" stroke="lightgrey" d="M 72 316 57 297"/>
<path stroke-width="7.382211538461539" stroke="lightgrey" d="M 72 316 150 281"/>
<path stroke-width="8.572115384615385" stroke="lightgrey" d="M 72 316 68 318"/>
<path stroke-width="8.50721153846154" stroke="lightgrey" d="M 72 316 29 306"/>
<path stroke-width="8.334134615384617" stroke="lightgrey" d="M 72 316 69 321"/>
<path stroke-width="8.009615384615383" stroke="lightgrey" d="M 72 316 88 314"/>
<path stroke-width="8.50721153846154" stroke="lightgrey" d="M 72 316 29 330"/>
<path stroke-width="8.420673076923077" stroke="lightgrey" d="M 72 316 25 322"/>
<path stroke-width="7.0576923076923075" stroke="lightgrey" d="M 69 321 150 307"/>
<path stroke-width="1.8817960111656258" stroke="lightgrey" d="M 72 316 825 369"/>
<path stroke-width="6.668269230769231" stroke="lightgrey" d="M 69 321 169 284"/>
<path stroke-width="7.901442307692307" stroke="lightgrey" d="M 29 306 121 325"/>
<path stroke-width="2.3413461538461537" stroke="lightgrey" d="M 29 306 718 425"/>
<path stroke-width="7.382211538461539" stroke="lightgrey" d="M 150 281 72 316"/>
<path stroke-width="6.841346153846154" stroke="lightgrey" d="M 150 281 69 321"/>
<path stroke-width="7.122596153846153" stroke="lightgrey" d="M 150 281 88 314"/>
<path stroke-width="6.971153846153847" stroke="lightgrey" d="M 150 281 29 330"/>
<path stroke-width="7.274038461538463" stroke="lightgrey" d="M 150 281 25 322"/>
<path stroke-width="6.819711538461539" stroke="lightgrey" d="M 68 318 150 307"/>
<path stroke-width="6.603365384615384" stroke="lightgrey" d="M 68 318 169 284"/>
<path stroke-width="4.09375" stroke="lightgrey" d="M 68 318 521 25"/>
<path stroke-width="3.0552884615384617" stroke="lightgrey" d="M 68 318 718 425"/>
<path stroke-width="2.1858074932155915" stroke="lightgrey" d="M 68 318 825 369"/>
<path stroke-width="1.5560694232549483" stroke="lightgrey" d="M 29 306 825 369"/>
<path stroke-width="8.009615384615383" stroke="lightgrey" d="M 68 318 121 325"/>
<path stroke-width="6.646634615384616" stroke="lightgrey" d="M 68 318 150 281"/>
<path stroke-width="7.98798076923077" stroke="lightgrey" d="M 68 318 29 306"/>
<path stroke-width="8.572115384615385" stroke="lightgrey" d="M 68 318 72 316"/>
<path stroke-width="9.502403846153847" stroke="lightgrey" d="M 68 318 69 321"/>
<path stroke-width="8.22596153846154" stroke="lightgrey" d="M 68 318 88 314"/>
<path stroke-width="9.329326923076923" stroke="lightgrey" d="M 68 318 29 330"/>
<path stroke-width="8.896634615384617" stroke="lightgrey" d="M 68 318 25 322"/>
<path stroke-width="7.663461538461539" stroke="lightgrey" d="M 29 306 150 307"/>
<path stroke-width="7.663461538461539" stroke="lightgrey" d="M 29 306 169 284"/>
<path stroke-width="3.6826923076923084" stroke="lightgrey" d="M 29 306 521 25"/>
<path stroke-width="7.533653846153846" stroke="lightgrey" d="M 68 318 57 297"/>
<path stroke-width="3.9855769230769242" stroke="lightgrey" d="M 69 321 521 25"/>
<path stroke-width="3.206730769230769" stroke="lightgrey" d="M 69 321 718 425"/>
<path stroke-width="2.098947069772744" stroke="lightgrey" d="M 69 321 825 369"/>
<path stroke-width="2.250952810797727" stroke="lightgrey" d="M 29 330 825 369"/>
<path stroke-width="8.939903846153847" stroke="lightgrey" d="M 29 330 121 325"/>
<path stroke-width="8.50721153846154" stroke="lightgrey" d="M 29 330 57 297"/>
<path stroke-width="6.971153846153847" stroke="lightgrey" d="M 29 330 150 281"/>
<path stroke-width="9.329326923076923" stroke="lightgrey" d="M 29 330 68 318"/>
<path stroke-width="8.78846153846154" stroke="lightgrey" d="M 29 330 29 306"/>
<path stroke-width="8.50721153846154" stroke="lightgrey" d="M 29 330 72 316"/>
<path stroke-width="9.091346153846153" stroke="lightgrey" d="M 29 330 69 321"/>
<path stroke-width="8.463942307692307" stroke="lightgrey" d="M 29 330 88 314"/>
<path stroke-width="10.0" stroke="lightgrey" d="M 29 330 25 322"/>
<path stroke-width="3.076923076923077" stroke="lightgrey" d="M 29 330 718 425"/>
<path stroke-width="7.274038461538463" stroke="lightgrey" d="M 25 322 150 307"/>
<path stroke-width="3.8125000000000004" stroke="lightgrey" d="M 25 322 521 25"/>
<path stroke-width="2.6875" stroke="lightgrey" d="M 25 322 718 425"/>
<path stroke-width="1.9469413287477613" stroke="lightgrey" d="M 25 322 825 369"/>
<path stroke-width="8.939903846153847" stroke="lightgrey" d="M 25 322 121 325"/>
<path stroke-width="9.026442307692308" stroke="lightgrey" d="M 25 322 57 297"/>
<path stroke-width="7.274038461538463" stroke="lightgrey" d="M 25 322 150 281"/>
<path stroke-width="8.896634615384617" stroke="lightgrey" d="M 25 322 68 318"/>
<path stroke-width="9.221153846153847" stroke="lightgrey" d="M 25 322 29 306"/>
<path stroke-width="8.420673076923077" stroke="lightgrey" d="M 25 322 72 316"/>
<path stroke-width="8.701923076923077" stroke="lightgrey" d="M 25 322 69 321"/>
<path stroke-width="7.100961538461539" stroke="lightgrey" d="M 25 322 169 284"/>
<path stroke-width="3.942307692307693" stroke="lightgrey" d="M 29 330 521 25"/>
<path stroke-width="7.0576923076923075" stroke="lightgrey" d="M 29 330 169 284"/>
<path stroke-width="7.144230769230769" stroke="lightgrey" d="M 29 330 150 307"/>
<path stroke-width="7.555288461538462" stroke="lightgrey" d="M 69 321 121 325"/>
<path stroke-width="7.685096153846153" stroke="lightgrey" d="M 69 321 57 297"/>
<path stroke-width="6.841346153846154" stroke="lightgrey" d="M 69 321 150 281"/>
<path stroke-width="9.502403846153847" stroke="lightgrey" d="M 69 321 68 318"/>
<path stroke-width="8.182692307692307" stroke="lightgrey" d="M 69 321 29 306"/>
<path stroke-width="8.334134615384617" stroke="lightgrey" d="M 69 321 72 316"/>
<path stroke-width="8.463942307692307" stroke="lightgrey" d="M 69 321 88 314"/>
<path stroke-width="9.091346153846153" stroke="lightgrey" d="M 69 321 29 330"/>
<path stroke-width="8.701923076923077" stroke="lightgrey" d="M 69 321 25 322"/>
<path stroke-width="7.382211538461539" stroke="lightgrey" d="M 88 314 150 307"/>
<path stroke-width="6.992788461538462" stroke="lightgrey" d="M 88 314 169 284"/>
<path stroke-width="4.180288461538463" stroke="lightgrey" d="M 88 314 521 25"/>
<path stroke-width="3.487980769230769" stroke="lightgrey" d="M 88 314 718 425"/>
<path stroke-width="2.272667916658439" stroke="lightgrey" d="M 88 314 825 369"/>
<path stroke-width="7.014423076923077" stroke="lightgrey" d="M 88 314 121 325"/>
<path stroke-width="7.836538461538463" stroke="lightgrey" d="M 88 314 57 297"/>
<path stroke-width="7.122596153846153" stroke="lightgrey" d="M 88 314 150 281"/>
<path stroke-width="8.22596153846154" stroke="lightgrey" d="M 88 314 68 318"/>
<path stroke-width="8.50721153846154" stroke="lightgrey" d="M 88 314 29 306"/>
<path stroke-width="8.009615384615383" stroke="lightgrey" d="M 88 314 72 316"/>
<path stroke-width="8.463942307692307" stroke="lightgrey" d="M 88 314 69 321"/>
<path stroke-width="8.463942307692307" stroke="lightgrey" d="M 88 314 29 330"/>
<path stroke-width="8.03125" stroke="lightgrey" d="M 88 314 25 322"/>
<path stroke-width="7.70673076923077" stroke="lightgrey" d="M 150 281 29 306"/>
<path stroke-width="6.646634615384616" stroke="lightgrey" d="M 150 281 68 318"/>
<path stroke-width="7.46875" stroke="lightgrey" d="M 150 281 57 297"/>
<path stroke-width="6.257211538461539" stroke="lightgrey" d="M 150 281 121 325"/>
<path stroke-width="3.379807692307692" stroke="lightgrey" d="M 521 25 150 307"/>
<path stroke-width="3.379807692307692" stroke="lightgrey" d="M 521 25 169 284"/>
<path stroke-width="1.0" stroke="lightgrey" d="M 521 25 718 425"/>
<path stroke-width="1.1217673060407118" stroke="lightgrey" d="M 521 25 825 369"/>
<path stroke-width="3.3149038461538463" stroke="lightgrey" d="M 521 25 121 325"/>
<path stroke-width="3.574519230769231" stroke="lightgrey" d="M 521 25 57 297"/>
<path stroke-width="3.6826923076923084" stroke="lightgrey" d="M 521 25 150 281"/>
<path stroke-width="4.09375" stroke="lightgrey" d="M 521 25 68 318"/>
<path stroke-width="3.6826923076923084" stroke="lightgrey" d="M 521 25 29 306"/>
<path stroke-width="3.661057692307693" stroke="lightgrey" d="M 521 25 72 316"/>
<path stroke-width="7.100961538461539" stroke="lightgrey" d="M 169 284 25 322"/>
<path stroke-width="3.9855769230769242" stroke="lightgrey" d="M 521 25 69 321"/>
<path stroke-width="3.942307692307693" stroke="lightgrey" d="M 521 25 29 330"/>
<path stroke-width="3.8125000000000004" stroke="lightgrey" d="M 521 25 25 322"/>
<path stroke-width="3.206730769230769" stroke="lightgrey" d="M 718 425 150 307"/>
<path stroke-width="2.2548076923076925" stroke="lightgrey" d="M 718 425 169 284"/>
<path stroke-width="1.0" stroke="lightgrey" d="M 718 425 521 25"/>
<path stroke-width="4.791620196501011" stroke="lightgrey" d="M 718 425 825 369"/>
<path stroke-width="2.795673076923077" stroke="lightgrey" d="M 718 425 121 325"/>
<path stroke-width="2.0600961538461537" stroke="lightgrey" d="M 718 425 57 297"/>
<path stroke-width="2.6875" stroke="lightgrey" d="M 718 425 150 281"/>
<path stroke-width="3.0552884615384617" stroke="lightgrey" d="M 718 425 68 318"/>
<path stroke-width="4.180288461538463" stroke="lightgrey" d="M 521 25 88 314"/>
<path stroke-width="7.0576923076923075" stroke="lightgrey" d="M 169 284 29 330"/>
<path stroke-width="6.992788461538462" stroke="lightgrey" d="M 169 284 88 314"/>
<path stroke-width="6.668269230769231" stroke="lightgrey" d="M 169 284 69 321"/>
<path stroke-width="3.379807692307692" stroke="lightgrey" d="M 150 307 521 25"/>
<path stroke-width="3.206730769230769" stroke="lightgrey" d="M 150 307 718 425"/>
<path stroke-width="1.7732204818620665" stroke="lightgrey" d="M 150 307 825 369"/>
<path stroke-width="6.38701923076923" stroke="lightgrey" d="M 150 307 121 325"/>
<path stroke-width="7.295673076923077" stroke="lightgrey" d="M 150 307 57 297"/>
<path stroke-width="8.399038461538463" stroke="lightgrey" d="M 150 307 150 281"/>
<path stroke-width="6.819711538461539" stroke="lightgrey" d="M 150 307 68 318"/>
<path stroke-width="7.663461538461539" stroke="lightgrey" d="M 150 307 29 306"/>
<path stroke-width="7.0360576923076925" stroke="lightgrey" d="M 150 307 72 316"/>
<path stroke-width="7.0576923076923075" stroke="lightgrey" d="M 150 307 69 321"/>
<path stroke-width="7.382211538461539" stroke="lightgrey" d="M 150 307 88 314"/>
<path stroke-width="7.144230769230769" stroke="lightgrey" d="M 150 307 29 330"/>
<path stroke-width="7.274038461538463" stroke="lightgrey" d="M 150 307 25 322"/>
<path stroke-width="6.538461538461539" stroke="lightgrey" d="M 169 284 150 307"/>
<path stroke-width="3.379807692307692" stroke="lightgrey" d="M 169 284 521 25"/>
<path stroke-width="2.2548076923076925" stroke="lightgrey" d="M 169 284 718 425"/>
<path stroke-width="1.7515053760013548" stroke="lightgrey" d="M 169 284 825 369"/>
<path stroke-width="6.257211538461539" stroke="lightgrey" d="M 169 284 121 325"/>
<path stroke-width="7.512019230769231" stroke="lightgrey" d="M 169 284 57 297"/>
<path stroke-width="6.278846153846154" stroke="lightgrey" d="M 169 284 150 281"/>
<path stroke-width="6.603365384615384" stroke="lightgrey" d="M 169 284 68 318"/>
<path stroke-width="7.663461538461539" stroke="lightgrey" d="M 169 284 29 306"/>
<path stroke-width="7.512019230769231" stroke="lightgrey" d="M 169 284 72 316"/>
<path stroke-width="2.3413461538461537" stroke="lightgrey" d="M 718 425 29 306"/>
<path stroke-width="8.03125" stroke="lightgrey" d="M 25 322 88 314"/>
<path stroke-width="2.96875" stroke="lightgrey" d="M 718 425 72 316"/>
<path stroke-width="3.487980769230769" stroke="lightgrey" d="M 718 425 88 314"/>
<path stroke-width="7.014423076923077" stroke="lightgrey" d="M 121 325 88 314"/>
<path stroke-width="8.939903846153847" stroke="lightgrey" d="M 121 325 29 330"/>
<path stroke-width="8.939903846153847" stroke="lightgrey" d="M 121 325 25 322"/>
<path stroke-width="7.295673076923077" stroke="lightgrey" d="M 57 297 150 307"/>
<path stroke-width="7.512019230769231" stroke="lightgrey" d="M 57 297 169 284"/>
<path stroke-width="3.574519230769231" stroke="lightgrey" d="M 57 297 521 25"/>
<path stroke-width="2.0600961538461537" stroke="lightgrey" d="M 57 297 718 425"/>
<path stroke-width="1.4040636822299657" stroke="lightgrey" d="M 57 297 825 369"/>
<path stroke-width="8.009615384615383" stroke="lightgrey" d="M 57 297 121 325"/>
<path stroke-width="7.46875" stroke="lightgrey" d="M 57 297 150 281"/>
<path stroke-width="7.555288461538462" stroke="lightgrey" d="M 121 325 69 321"/>
<path stroke-width="7.533653846153846" stroke="lightgrey" d="M 57 297 68 318"/>
<path stroke-width="8.009615384615383" stroke="lightgrey" d="M 57 297 72 316"/>
<path stroke-width="7.685096153846153" stroke="lightgrey" d="M 57 297 69 321"/>
<path stroke-width="7.836538461538463" stroke="lightgrey" d="M 57 297 88 314"/>
<path stroke-width="8.50721153846154" stroke="lightgrey" d="M 57 297 29 330"/>
<path stroke-width="9.026442307692308" stroke="lightgrey" d="M 57 297 25 322"/>
<path stroke-width="8.399038461538463" stroke="lightgrey" d="M 150 281 150 307"/>
<path stroke-width="6.278846153846154" stroke="lightgrey" d="M 150 281 169 284"/>
<path stroke-width="3.6826923076923084" stroke="lightgrey" d="M 150 281 521 25"/>
<path stroke-width="2.6875" stroke="lightgrey" d="M 150 281 718 425"/>
<path stroke-width="1.3823485763692538" stroke="lightgrey" d="M 150 281 825 369"/>
<path stroke-width="9.632211538461538" stroke="lightgrey" d="M 57 297 29 306"/>
<path stroke-width="7.144230769230769" stroke="lightgrey" d="M 121 325 72 316"/>
<path stroke-width="7.901442307692307" stroke="lightgrey" d="M 121 325 29 306"/>
<path stroke-width="8.009615384615383" stroke="lightgrey" d="M 121 325 68 318"/>
<path stroke-width="3.076923076923077" stroke="lightgrey" d="M 718 425 29 330"/>
<path stroke-width="2.6875" stroke="lightgrey" d="M 718 425 25 322"/>
<path stroke-width="1.7732204818620665" stroke="lightgrey" d="M 825 369 150 307"/>
<path stroke-width="1.7515053760013548" stroke="lightgrey" d="M 825 369 169 284"/>
<path stroke-width="1.1217673060407118" stroke="lightgrey" d="M 825 369 521 25"/>
<path stroke-width="4.791620196501011" stroke="lightgrey" d="M 825 369 718 425"/>
<path stroke-width="2.1858074932155915" stroke="lightgrey" d="M 825 369 121 325"/>
<path stroke-width="1.4040636822299657" stroke="lightgrey" d="M 825 369 57 297"/>
<path stroke-width="1.3823485763692538" stroke="lightgrey" d="M 825 369 150 281"/>
<path stroke-width="2.1858074932155915" stroke="lightgrey" d="M 825 369 68 318"/>
<path stroke-width="1.5560694232549483" stroke="lightgrey" d="M 825 369 29 306"/>
<path stroke-width="1.8817960111656258" stroke="lightgrey" d="M 825 369 72 316"/>
<path stroke-width="2.098947069772744" stroke="lightgrey" d="M 825 369 69 321"/>
<path stroke-width="2.2726679166584387" stroke="lightgrey" d="M 825 369 88 314"/>
<path stroke-width="2.2509528107977266" stroke="lightgrey" d="M 825 369 29 330"/>
<path stroke-width="1.9469413287477613" stroke="lightgrey" d="M 825 369 25 322"/>
<path stroke-width="6.38701923076923" stroke="lightgrey" d="M 121 325 150 307"/>
<path stroke-width="6.257211538461539" stroke="lightgrey" d="M 121 325 169 284"/>
<path stroke-width="3.3149038461538463" stroke="lightgrey" d="M 121 325 521 25"/>
<path stroke-width="2.795673076923077" stroke="lightgrey" d="M 121 325 718 425"/>
<path stroke-width="2.1858074932155915" stroke="lightgrey" d="M 121 325 825 369"/>
<path stroke-width="8.009615384615383" stroke="lightgrey" d="M 121 325 57 297"/>
<path stroke-width="6.257211538461539" stroke="lightgrey" d="M 121 325 150 281"/>
<path stroke-width="3.206730769230769" stroke="lightgrey" d="M 718 425 69 321"/>
<path stroke-width="10.0" stroke="lightgrey" d="M 25 322 29 330"/>
<circle cx="150" cy="307" r="25.0" style="fill:blue;stroke:black;stroke-width:4.0"/>
<circle cx="169" cy="284" r="25.0" style="fill:blue;stroke:black;stroke-width:4.0"/>
<circle cx="521" cy="25" r="25.0" style="fill:blue;stroke:black;stroke-width:4.0"/>
<circle cx="718" cy="425" r="25.0" style="fill:red;stroke:black;stroke-width:4.0"/>
<circle cx="825" cy="369" r="25.0" style="fill:red;stroke:black;stroke-width:4.0"/>
<circle cx="121" cy="325" r="25.0" style="fill:blue;stroke:black;stroke-width:4.0"/>
<circle cx="57" cy="297" r="25.0" style="fill:blue;stroke:black;stroke-width:4.0"/>
<circle cx="150" cy="281" r="25.0" style="fill:blue;stroke:black;stroke-width:4.0"/>
<circle cx="68" cy="318" r="25.0" style="fill:blue;stroke:black;stroke-width:4.0"/>
<circle cx="29" cy="306" r="25.0" style="fill:blue;stroke:black;stroke-width:4.0"/>
<circle cx="72" cy="316" r="25.0" style="fill:blue;stroke:black;stroke-width:4.0"/>
<circle cx="69" cy="321" r="25.0" style="fill:blue;stroke:black;stroke-width:4.0"/>
<circle cx="88" cy="314" r="25.0" style="fill:blue;stroke:black;stroke-width:4.0"/>
<circle cx="29" cy="330" r="25.0" style="fill:blue;stroke:black;stroke-width:4.0"/>
<circle cx="25" cy="322" r="25.0" style="fill:blue;stroke:black;stroke-width:4.0"/>
<text text-anchor="start" x="178" y="307" font-size="20">BERTScore</text><text text-anchor="start" x="197" y="284" font-size="20">BLEU</text><text text-anchor="start" x="549" y="25" font-size="20">Chrfpp</text><text text-anchor="start" x="746" y="425" font-size="20">H:pyr</text><text text-anchor="start" x="853" y="369" font-size="20">H:resp</text><text text-anchor="start" x="149" y="325" font-size="20">JS_1</text><text text-anchor="start" x="85" y="297" font-size="20">JS_2</text><text text-anchor="start" x="178" y="281" font-size="20">MoverScore</text><text text-anchor="start" x="96" y="318" font-size="20">ROUGE_1</text><text text-anchor="start" x="57" y="306" font-size="20">ROUGE_2</text><text text-anchor="start" x="100" y="316" font-size="20">ROUGE_L</text><text text-anchor="start" x="97" y="321" font-size="20">ROUGE_WE_1</text><text text-anchor="start" x="116" y="314" font-size="20">ROUGE_WE_2</text><text text-anchor="start" x="57" y="330" font-size="20">S3_pyr</text><text text-anchor="start" x="53" y="322" font-size="20">S3_resp</text></svg>
